HIERARCHY
ROOT Hips
{
	OFFSET 0.000000 0.000000 0.000000 
	CHANNELS 6 Xposition Yposition Zposition Zrotation Yrotation Xrotation
	JOINT LeftUpLeg
	{
		OFFSET 1.363060 -1.794630 0.839290 
		CHANNELS 3 Zrotation Yrotation Xrotation
		JOINT LeftLeg
		{
			OFFSET 2.448110 -6.726130 0.000000 
			CHANNELS 3 Zrotation Yrotation Xrotation
			JOINT LeftFoot
			{
				OFFSET 2.562200 -7.039590 0.000000 
				CHANNELS 3 Zrotation Yrotation Xrotation
				JOINT LeftToeBase
				{
					OFFSET 0.157640 -0.433110 2.322550 
					CHANNELS 3 Zrotation Yrotation Xrotation
					End Site
					{
						OFFSET 0.000000 0.000000 0.000000 
					}
				}
			}
		}
	}
	JOINT RightUpLeg
	{
		OFFSET -1.305520 -1.794630 0.839290 
		CHANNELS 3 Zrotation Yrotation Xrotation
		JOINT RightLeg
		{
			OFFSET -2.542530 -6.985550 0.000000 
			CHANNELS 3 Zrotation Yrotation Xrotation
			JOINT RightFoot
			{
				OFFSET -2.568260 -7.056230 0.000000 
				CHANNELS 3 Zrotation Yrotation Xrotation
				JOINT RightToeBase
				{
					OFFSET -0.164730 -0.452590 2.363150 
					CHANNELS 3 Zrotation Yrotation Xrotation
					End Site
					{
						OFFSET 0.000000 0.000000 0.000000 
					}
				}
			}
		}
	}
	JOINT Spine
	{
		OFFSET 0.028270 2.035590 -0.193380 
		CHANNELS 3 Zrotation Yrotation Xrotation
		JOINT Spine1
		{
			OFFSET 0.056720 2.048850 -0.042750 
			CHANNELS 3 Zrotation Yrotation Xrotation
			JOINT Neck1
			{
				OFFSET -0.054170 1.746240 0.172020 
				CHANNELS 3 Zrotation Yrotation Xrotation
				JOINT Head
				{
					OFFSET 0.104070 1.761360 -0.123970 
					CHANNELS 3 Zrotation Yrotation Xrotation
					End Site
					{
						OFFSET 0.000000 0.000000 0.000000 
					}
				}
			}
			JOINT LeftArm
			{
				OFFSET 3.362410 1.200890 -0.311210 
				CHANNELS 3 Zrotation Yrotation Xrotation
				JOINT LeftForeArm
				{
					OFFSET 4.983000 -0.000000 -0.000000 
					CHANNELS 3 Zrotation Yrotation Xrotation
					JOINT LeftHand
					{
						OFFSET 3.483560 -0.000000 -0.000000 
						CHANNELS 3 Zrotation Yrotation Xrotation
						JOINT LeftHandIndex1
						{
							OFFSET 0.715260 -0.000000 -0.000000 
							CHANNELS 3 Zrotation Yrotation Xrotation
							End Site
							{
								OFFSET 0.000000 0.000000 0.000000 
							}
						}
					}
				}
			}
			JOINT RightArm
			{
				OFFSET -3.136600 1.374050 -0.404650 
				CHANNELS 3 Zrotation Yrotation Xrotation
				JOINT RightForeArm
				{
					OFFSET -5.241900 -0.000000 -0.000000 
					CHANNELS 3 Zrotation Yrotation Xrotation
					JOINT RightHand
					{
						OFFSET -3.444170 -0.000000 -0.000000 
						CHANNELS 3 Zrotation Yrotation Xrotation
						JOINT RightHandIndex1
						{
							OFFSET -0.622530 -0.000000 -0.000000 
							CHANNELS 3 Zrotation Yrotation Xrotation
							End Site
							{
								OFFSET 0.000000 0.000000 0.000000 
							}
						}
					}
				}
			}
		}
	}
}
MOTION
Frames: 6
Frame Time: 0.041667
49.605650 17.206676 -7.464527 -2.416389 -3.859528 6.309328 -23.858395 -2.558214 -14.506712 0.745847 7.571289 21.671206 0.326433 -3.482879 -4.037583 0.058500 1.560400 4.292300 25.663499 23.514194 -6.925259 -7.298898 -15.537205 49.032166 -0.265343 6.169818 -5.953121 -0.932200 -6.150400 17.221400 -0.114923 3.959063 -1.120552 -3.254039 1.694436 4.344574 5.418165 11.963284 11.106442 -0.189400 6.519300 5.357800 -60.793947 -6.453842 27.089666 14.139170 -22.804114 -4.147148 -1.532436 -0.903183 -11.877142 -7.125000 0.000000 0.000000 74.758435 -11.368130 21.626371 -19.692872 30.875502 -6.439141 0.201753 -0.840966 3.563764 7.125000 0.000000 0.000000 
49.651178 17.203914 -7.474247 -2.397167 -5.085131 6.364422 -24.088043 -2.089805 -14.631398 0.766986 7.590748 21.732638 0.306122 -2.912054 -4.535532 0.051400 1.462400 4.022200 25.813034 22.967372 -7.281896 -7.430053 -15.624573 49.462636 -0.350077 4.299301 -8.295522 -0.692100 -5.318100 14.818200 -0.131338 3.932829 -1.110143 -3.286379 1.682119 4.360381 5.429436 11.917182 11.148618 -0.166100 6.494100 5.367900 -60.581004 -6.639305 26.988637 14.252981 -22.907357 -4.191964 -1.529470 -0.906452 -11.887734 -7.125000 0.000000 0.000000 74.838367 -11.298416 21.661921 -19.675446 30.863116 -6.429943 0.200933 -0.842506 3.595255 7.125000 0.000000 0.000000 
49.696092 17.201049 -7.483761 -2.384966 -6.324708 6.423901 -24.307243 -1.631950 -14.765012 0.788845 7.612221 21.798753 0.284370 -2.336312 -5.039603 0.046600 1.392800 3.830400 25.995598 22.379034 -7.634558 -7.549643 -15.701842 49.851879 -0.424333 2.575921 -10.480256 -0.528400 -4.658300 12.936500 -0.148514 3.911395 -1.099649 -3.320916 1.672497 4.389093 5.441715 11.854377 11.189802 -0.139100 6.460200 5.380000 -60.374147 -6.833213 26.888245 14.361982 -23.004127 -4.235037 -1.527096 -0.909010 -11.899589 -7.125000 0.000000 0.000000 74.926605 -11.204282 21.685626 -19.640706 30.832416 -6.412352 0.198765 -0.844495 3.631637 7.125000 0.000000 0.000000 
49.740188 17.198185 -7.494095 -2.374211 -7.562823 6.492032 -24.518259 -1.164546 -14.925173 0.810437 7.635836 21.868692 0.262875 -1.789829 -5.531066 0.044200 1.357200 3.732100 26.204032 21.744238 -7.995940 -7.657040 -15.770195 50.200581 -0.492635 1.079891 -12.481619 -0.414100 -4.130900 11.445100 -0.167152 3.889243 -1.090901 -3.357638 1.662584 4.421124 5.458968 11.777062 11.224151 -0.106700 6.418600 5.390500 -60.164555 -7.034501 26.790493 14.467006 -23.095312 -4.276848 -1.525683 -0.911597 -11.907083 -7.125000 0.000000 0.000000 75.019538 -11.100212 21.737719 -19.607930 30.803895 -6.394963 0.196696 -0.846628 3.652518 7.125000 0.000000 0.000000 
49.783158 17.195115 -7.504940 -2.367912 -8.812675 6.567196 -24.718487 -0.671658 -15.111302 0.832286 7.661273 21.942482 0.242188 -1.274408 -6.012434 0.043200 1.341600 3.689200 26.440663 21.078676 -8.359273 -7.752029 -15.830226 50.509449 -0.559383 -0.153075 -14.279649 -0.331100 -3.698200 10.229100 -0.187224 3.866063 -1.083540 -3.397838 1.652216 4.452522 5.474854 11.698593 11.243171 -0.077700 6.376100 5.391200 -59.943710 -7.222500 26.715697 14.579148 -23.196468 -4.322925 -1.525249 -0.916543 -11.954443 -7.125000 0.000000 0.000000 75.112497 -11.001236 21.842809 -19.587592 30.789181 -6.382627 0.195275 -0.848633 3.649149 7.125000 0.000000 0.000000 
49.825207 17.191739 -7.516501 -2.359183 -10.079250 6.649551 -24.916443 -0.149616 -15.324854 0.854252 7.688435 22.020070 0.222606 -0.786939 -6.487967 0.042800 1.334700 3.670200 26.697357 20.394783 -8.726101 -7.835871 -15.883364 50.783024 -0.623398 -1.175456 -15.856662 -0.261900 -3.292600 9.094500 -0.209082 3.848184 -1.078213 -3.434646 1.643997 4.479403 5.491516 11.617960 11.246706 -0.049000 6.331900 5.382900 -59.721911 -7.409068 26.632809 14.685306 -23.290842 -4.366884 -1.525051 -0.921516 -11.988884 -7.125000 0.000000 0.000000 75.203061 -10.915139 21.986640 -19.582478 30.790425 -6.376965 0.194217 -0.850504 3.621410 7.125000 0.000000 0.000000 
